<svg viewBox="0 0 24 24" fill="none" stroke="currentColor" stroke-width="2.4" stroke-linecap="round" stroke-linejoin="round">
            <path d="M11.2 20.2c-2.8 0-5.1-1.5-5.1-4 0-2.1 1.6-3.7 3.6-5.2 1.1-.8 1.9-1.7 2.4-2.9.5 1.2 1.3 2.1 2.4 2.9 2 1.5 3.6 3.1 3.6 5.2 0 2.5-2.3 4-5.1 4h-1.8z"></path>
            <path d="M5.4 10.3c-1.1.2-2.1-.7-2.3-2s.5-2.5 1.6-2.7c1.1-.2 2.1.7 2.3 2s-.5 2.5-1.6 2.7z"></path>
            <path d="M18.6 10.3c1.1.2 2.1-.7 2.3-2s-.5-2.5-1.6-2.7c-1.1-.2-2.1.7-2.3 2s.5 2.5 1.6 2.7z"></path>
            <path d="M9 6.8c-1 .1-1.9-.8-2-2.1-.1-1.2.6-2.3 1.6-2.4 1-.1 1.9.8 2 2.1.1 1.2-.6 2.3-1.6 2.4z"></path>
            <path d="M15 6.8c1 .1 1.9-.8 2-2.1.1-1.2-.6-2.3-1.6-2.4-1-.1-1.9.8-2 2.1-.1 1.2.6 2.3 1.6 2.4z"></path>
          </svg>